<svg xmlns="http://www.w3.org/2000/svg" width="130" height="130" viewBox="0 0 130 130">
  <g id="Group_375" data-name="Group 375" transform="translate(-932 -1889)">
    <circle id="Ellipse_5" data-name="Ellipse 5" cx="65" cy="65" r="65" transform="translate(932 1889)" fill="#1b7667"/>
    <g id="noun-art-1170678" transform="translate(775.916 1799.686)">
      <path id="Path_254" data-name="Path 254" d="M337.253,144.442c3.63,13.092.617,24.941-6.9,35.884a8.728,8.728,0,0,1-5.656,3.692c-3.99.771-7.169-.812-9.893-3.528a8.075,8.075,0,0,0-7.61-2.335,18.167,18.167,0,0,0-5.214,1.615c-1.152.586-1.687.545-2.263-.75-2.365-5.317-4.844-10.593-7.323-15.859a2.6,2.6,0,0,1,.093-2.633A72.049,72.049,0,0,1,310.3,138.5c3.826-3.137,7.96-5.7,13.174-5.7,6.15.031,11.9,4.833,13.781,11.642ZM323.1,150.088a4.448,4.448,0,0,0,4.34-4.247,4.194,4.194,0,0,0-4.32-4.371,4.082,4.082,0,0,0-4.278,4.166A4.249,4.249,0,0,0,323.1,150.088Zm.7,11.149a3.626,3.626,0,0,0,7.25-.1,3.812,3.812,0,0,0-3.579-3.487A3.756,3.756,0,0,0,323.8,161.237Zm-18.554-7.487a3.4,3.4,0,0,0,3.61,3.342,3.513,3.513,0,1,0-3.61-3.342Z" transform="translate(-81.01 -9.522)" fill="#fff"/>
      <path id="Path_255" data-name="Path 255" d="M254.177,283.585a5.963,5.963,0,0,0-.607-2.211q-6.927-14.949-13.812-29.918c-.555-1.214-1.1-2-2.53-1.049-1.08.71-2.951.257-3.476,1.522-.494,1.2.4,2.622.72,3.929q3.672,14.886,7.425,29.754a6.256,6.256,0,0,0,6.726,4.742c3.332-.464,5.554-2.942,5.554-6.768Z" transform="translate(-35.02 -101.695)" fill="#fff"/>
      <path id="Path_256" data-name="Path 256" d="M196.808,145.462a11.6,11.6,0,0,0,5.255-1.677,5.455,5.455,0,0,0,2.273-6.932A37.145,37.145,0,0,0,193.012,121.7c-.946-.792-2.149-1.522-3.291-.524-1.018.885-.638,2.088-.093,3.178,1.625,3.26,1.44,6.726,1.049,10.182a17.073,17.073,0,0,0,.669,7.034,5.31,5.31,0,0,0,5.461,3.888Z" transform="translate(0 0)" fill="#fff"/>
    </g>
  </g>
</svg>
