<svg xmlns="http://www.w3.org/2000/svg" width="130" height="130" viewBox="0 0 130 130">
  <g id="branding" transform="translate(-1429 -1365)">
    <circle id="Ellipse_3" data-name="Ellipse 3" cx="65" cy="65" r="65" transform="translate(1429 1365)" fill="#1b7667"/>
    <g id="noun-blueprint-5079710" transform="translate(1380.846 1351.731)">
      <path id="Path_239" data-name="Path 239" d="M353.155,184.292a1.559,1.559,0,1,1-1.559-1.559,1.559,1.559,0,0,1,1.559,1.559" transform="translate(-236.493 -117.558)" fill="#fff" fill-rule="evenodd"/>
      <path id="Path_240" data-name="Path 240" d="M322.556,207.15l-4.473-4.762-3.713,5.249V211.3h16.205v-7.067l-4.1-4.6-4.565,5.14,1.488,1.584a.577.577,0,1,1-.84.79Z" transform="translate(-205.541 -132.227)" fill="#fff" fill-rule="evenodd"/>
      <path id="Path_241" data-name="Path 241" d="M209.05,120.506a4.551,4.551,0,0,1,5.63-.932V98.813a2.815,2.815,0,0,0-5.63,0v21.694Z" transform="translate(-114.142 -42.288)" fill="#fff" fill-rule="evenodd"/>
      <path id="Path_242" data-name="Path 242" d="M221.814,142.51V127.6h18.519v18.519H221.814Zm-5.978-19.32v23.945a3.393,3.393,0,1,0-3.393,3.393h33.869V123.19Z" transform="translate(-114.142 -65.886)" fill="#fff" fill-rule="evenodd"/>
      <path id="Path_243" data-name="Path 243" d="M169.812,364.3H105.05v5.407a2.648,2.648,0,0,0,2.64,2.64h59.482a2.648,2.648,0,0,0,2.64-2.64V364.3Zm-36.1,3.26a.764.764,0,1,0,0,1.527h7.436a.764.764,0,1,0,0-1.527Z" transform="translate(-23.889 -275.125)" fill="#fff" fill-rule="evenodd"/>
      <path id="Path_244" data-name="Path 244" d="M165.948,75.265V51.818a.739.739,0,0,0-.731-.731H109.545a.739.739,0,0,0-.731.731h-.008V90.129h57.142Zm3.817-7.922V89.174a1.909,1.909,0,0,1-1.909,1.909H106.905a1.9,1.9,0,0,1-1.9-1.908V51.817H105a4.557,4.557,0,0,1,4.548-4.548h55.672a4.557,4.557,0,0,1,4.548,4.548V67.342Z" transform="translate(-23.843 0)" fill="#fff"/>
      <path id="Path_245" data-name="Path 245" d="M260.992,433.92c-.541,3.517-3.3,7.484-4.636,10.417h24.756c-1.338-2.933-4.1-6.9-4.636-10.417Z" transform="translate(-155.196 -335.543)" fill="#fff" fill-rule="evenodd"/>
    </g>
  </g>
</svg>
