<svg xmlns="http://www.w3.org/2000/svg" width="130" height="130" viewBox="0 0 130 130">
  <g id="graphic" transform="translate(-94.999 -1099.762)">
    <circle id="Ellipse_2" data-name="Ellipse 2" cx="65" cy="65" r="65" transform="translate(94.999 1099.762)" fill="#1b7667"/>
    <g id="noun-design-1173261" transform="translate(121.999 1133.762)">
      <path id="Path_225" data-name="Path 225" d="M289.362,454.16h-20.8a1.434,1.434,0,0,0-1.44,1.44v3.36a1.434,1.434,0,0,0,1.44,1.44h20.8a1.434,1.434,0,0,0,1.44-1.44V455.6A1.434,1.434,0,0,0,289.362,454.16Z" transform="translate(-240.961 -398.079)" fill="#fff"/>
      <path id="Path_226" data-name="Path 226" d="M264.607,165.121a3.785,3.785,0,0,0-1.76-1.6v17.2a4.491,4.491,0,1,1-6,4.24,4.619,4.619,0,0,1,2.96-4.24V163.6a4.589,4.589,0,0,0-1.76,1.52l-10.72,18.72a5.4,5.4,0,0,0-.64,4l2.56,12.72a1.537,1.537,0,0,0,1.44,1.2h21.36a1.455,1.455,0,0,0,1.44-1.2l2.56-12.72a5.4,5.4,0,0,0-.64-4Z" transform="translate(-223.326 -148.96)" fill="#fff"/>
      <path id="Path_227" data-name="Path 227" d="M156.079,69.438a3.92,3.92,0,1,0,0-7.84,3.976,3.976,0,0,0-3.68,2.64h-26.56v-2.56h-7.76v2.56H91.6a3.976,3.976,0,0,0-3.68-2.64,3.92,3.92,0,0,0,0,7.84A3.976,3.976,0,0,0,91.6,66.8h16.56a35.816,35.816,0,0,0-21.6,29.04H84v7.76h7.76v-7.76H89.6a32.623,32.623,0,0,1,28.48-28.48v2.16h7.76v-2.16a32.623,32.623,0,0,1,28.48,28.48h-2.16v7.76h7.76v-7.76h-2.56a35.817,35.817,0,0,0-21.6-29.04H152.4a3.867,3.867,0,0,0,3.68,2.64Z" transform="translate(-83.998 -61.598)" fill="#fff"/>
    </g>
  </g>
</svg>
