<svg xmlns="http://www.w3.org/2000/svg" width="130" height="130" viewBox="0 0 130 130">
  <g id="illustrator" transform="translate(-744 -5035)">
    <circle id="Ellipse_31" data-name="Ellipse 31" cx="65" cy="65" r="65" transform="translate(744 5035)" fill="#e2e2e2"/>
    <g id="Adobe_Illustrator_CC_icon" transform="translate(285 5277)">
      <path id="Path_266" data-name="Path 266" d="M77.734,89.464H61.873l-3.24,10.02a.746.746,0,0,1-.81.6H49.806c-.469,0-.6-.256-.469-.767L63.067,59.788c.128-.426.256-.9.426-1.407a14.893,14.893,0,0,0,.256-2.771.422.422,0,0,1,.341-.469H75.133c.341,0,.512.128.554.341L91.25,99.4c.128.469,0,.682-.426.682H81.913a.644.644,0,0,1-.682-.469ZM64.346,80.809h10.83c-.256-.9-.6-1.961-.981-3.07-.384-1.151-.767-2.388-1.151-3.667-.426-1.322-.81-2.6-1.237-3.923s-.81-2.558-1.151-3.795c-.341-1.194-.64-2.3-.938-3.326h-.085a52.353,52.353,0,0,1-1.45,5.5c-.64,2.047-1.279,4.179-1.961,6.31C65.625,77.014,64.985,79.018,64.346,80.809ZM100.759,62.6a5.277,5.277,0,0,1-3.795-1.492,5.539,5.539,0,0,1-1.45-3.923,5.016,5.016,0,0,1,1.535-3.795,5.461,5.461,0,0,1,3.795-1.492,5.106,5.106,0,0,1,3.88,1.492,5.862,5.862,0,0,1-.085,7.717,5.014,5.014,0,0,1-3.88,1.492Zm-4.775,37.01V66.781c0-.426.171-.6.554-.6h8.442c.384,0,.554.213.554.6V99.612c0,.469-.171.682-.554.682H96.623A.6.6,0,0,1,95.983,99.612Z" transform="translate(445.71 -254.9)" fill="#286f6c"/>
    </g>
  </g>
</svg>
