<svg xmlns="http://www.w3.org/2000/svg" width="130" height="130" viewBox="0 0 130 130">
  <g id="lightroom" transform="translate(-1370 -5035)">
    <circle id="Ellipse_34" data-name="Ellipse 34" cx="65" cy="65" r="65" transform="translate(1370 5035)" fill="#e2e2e2"/>
    <g id="Layer_2_1_" transform="translate(1345.813 5011.916)">
      <g id="Lr" transform="translate(65.187 64.085)">
        <path id="Path_268" data-name="Path 268" d="M94.128,111.038H65.9c-.5,0-.709-.25-.709-.792V64.716a.56.56,0,0,1,.5-.625h8.881a.431.431,0,0,1,.5.375V101.99h20.6c.459,0,.584.208.5.625l-1.292,7.755a.827.827,0,0,1-.25.542A1.11,1.11,0,0,1,94.128,111.038Z" transform="translate(-65.187 -64.085)" fill="#286f6c"/>
        <path id="Path_269" data-name="Path 269" d="M150.989,90.2h7.8a.939.939,0,0,1,.917.709,3.849,3.849,0,0,1,.375,1.042c.083.459.167.917.208,1.376.042.5.083,1.042.083,1.584a17.651,17.651,0,0,1,4.753-3.836,12.779,12.779,0,0,1,6.629-1.584.56.56,0,0,1,.625.5v8.881c0,.375-.208.5-.709.5a18.779,18.779,0,0,0-8.422,1.5,7.393,7.393,0,0,0-2.418,1.668v22.723c0,.459-.167.625-.584.625h-8.672a.6.6,0,0,1-.709-.542V100.5c0-1.084,0-2.168-.042-3.335s-.042-2.335-.083-3.461c-.042-1-.125-1.96-.25-2.96a.429.429,0,0,1,.292-.5c.083-.083.125-.083.208-.042Z" transform="translate(-114.919 -78.892)" fill="#286f6c"/>
      </g>
    </g>
  </g>
</svg>
