<svg xmlns="http://www.w3.org/2000/svg" width="74.44" height="44" viewBox="0 0 74.44 44">
  <g id="logo" transform="translate(-60.662 -87.38)">
    <path id="Path_221" data-name="Path 221" d="M60.662,87.631s2.574-.134,5.549-.166c1.785-.019,3.724-.329,5.307.367,1.408.618,2.064,2.453,2.761,3.767,2.788,5.254,13.3,25.628,13.3,25.628s1.179.429-1.18,5.362-3.86,8.042-3.86,8.042Z" transform="translate(0 0)"/>
    <path id="Path_222" data-name="Path 222" d="M115.268,87.529l18.3.027v43.888H123.385s-.023-8.2,0-18.39c.015-6.586.411-13.374-.429-15.816-1.973-5.736-6.427-8.352-7.739-9.357Z" transform="translate(-23.478 -0.064)"/>
    <path id="Path_223" data-name="Path 223" d="M163.745,87.862a11.327,11.327,0,0,1,6.072.121c4.485,1.312,9.946,5.673,9.517,14.717-.236,4.971-4.182,14.288-15.836,12.311a21.137,21.137,0,0,0,5.274-14.241C168.615,92.3,163.745,87.862,163.745,87.862Z" transform="translate(-44.255 -0.057)"/>
  </g>
</svg>
