<svg xmlns="http://www.w3.org/2000/svg" width="130" height="130" viewBox="0 0 130 130">
  <g id="art" transform="translate(-1435 -1889)">
    <circle id="Ellipse_6" data-name="Ellipse 6" cx="65" cy="65" r="65" transform="translate(1435 1889)" fill="#286f6c"/>
    <g id="noun-photography-3625453" transform="translate(1274.746 1886.75)">
      <path id="Path_257" data-name="Path 257" d="M245.09,257.279V254.36H233.166v2.919h-2.141l-13.484,42.615h3.194l17.833-41.31h1.12l17.833,41.31h3.194l-13.484-42.615Z" transform="translate(-13.632 -190.934)" fill="#fff"/>
      <path id="Path_258" data-name="Path 258" d="M439.46,44.926v2.056h5.315V44.926c0-.7-.8-1.262-1.777-1.262h-1.761C440.26,43.664,439.46,44.23,439.46,44.926Z" transform="translate(-199.384 -14.576)" fill="#fff"/>
      <path id="Path_259" data-name="Path 259" d="M248.069,69.044H236.841l1.371,11.718a11.725,11.725,0,0,1,.268,2.515,12.987,12.987,0,0,1-25.965,0,12.4,12.4,0,0,1,.275-2.59l1.372-11.644H202.925a1.658,1.658,0,0,0-1.671,1.634V96.433a1.659,1.659,0,0,0,1.671,1.634h45.141a1.658,1.658,0,0,0,1.671-1.634V70.677a1.654,1.654,0,0,0-1.67-1.633Z" transform="translate(0 -35.819)" fill="#fff"/>
      <path id="Path_260" data-name="Path 260" d="M295.987,26.25H279.249a1.314,1.314,0,0,0-1.252.883l-.076.506-.812,5.586-1.388,11.808a11.545,11.545,0,0,0-.26,2.426,12.151,12.151,0,0,0,24.294,0,11.505,11.505,0,0,0-.26-2.426l-1.388-11.808-.8-5.52-.093-.653a1.327,1.327,0,0,0-1.229-.8ZM287.61,56.531a8.8,8.8,0,1,1,9-8.794A8.909,8.909,0,0,1,287.61,56.531Z" transform="translate(-62.113)" fill="#fff"/>
      <path id="Path_261" data-name="Path 261" d="M311.517,118.007a4.255,4.255,0,0,1-2.792-3.927,4.2,4.2,0,0,1,2.2-3.659,8.431,8.431,0,0,0-3.26-.644,8.07,8.07,0,0,0-8.242,7.88,7.9,7.9,0,0,0,5.175,7.3,8.631,8.631,0,0,0,6.134,0,7.9,7.9,0,0,0,5.175-7.3,2.141,2.141,0,0,0-.008-.23,4.476,4.476,0,0,1-1.063.581,4.657,4.657,0,0,1-1.656.309,4.6,4.6,0,0,1-1.662-.309Zm-3.853.491a.849.849,0,1,1,.87-.849A.853.853,0,0,1,307.664,118.5Z" transform="translate(-82.168 -69.913)" fill="#fff"/>
    </g>
  </g>
</svg>
