<svg xmlns="http://www.w3.org/2000/svg" width="130" height="130" viewBox="0 0 130 130">
  <g id="photoshop" transform="translate(-429 -5035)">
    <circle id="Ellipse_29" data-name="Ellipse 29" cx="65" cy="65" r="65" transform="translate(429 5035)" fill="#e2e2e2"/>
    <g id="Layer_2_1_" transform="translate(614 4841)">
      <g id="Outlined_Mnemonics_Logos" transform="translate(-147 236)">
        <g id="Ps" transform="translate(0)">
          <path id="Path_263" data-name="Path 263" d="M54,102.247V60.195c0-.286.123-.45.409-.45.695,0,1.349,0,2.289-.041.981-.041,2-.041,3.106-.082s2.289-.041,3.555-.082,2.493-.041,3.719-.041A24.029,24.029,0,0,1,75.5,60.767a14.594,14.594,0,0,1,5.476,3.351,13.012,13.012,0,0,1,2.983,4.659,15.642,15.642,0,0,1,.94,5.313,14.61,14.61,0,0,1-2.452,8.7,14,14,0,0,1-6.58,4.986,26.486,26.486,0,0,1-9.2,1.389c-.981,0-1.635,0-2.043-.041s-.981-.041-1.757-.041v13.118a.509.509,0,0,1-.45.572H54.49C54.163,102.778,54,102.614,54,102.247Zm8.909-34.614V81.364c.572.041,1.1.082,1.594.082h2.166a15.265,15.265,0,0,0,4.7-.736,7.028,7.028,0,0,0,3.351-2.166,6.315,6.315,0,0,0,1.267-4.209,6.726,6.726,0,0,0-.94-3.637,5.926,5.926,0,0,0-2.861-2.329,11.992,11.992,0,0,0-4.822-.817c-1.063,0-2,0-2.779.041a9.357,9.357,0,0,0-1.676.041Z" transform="translate(-54 -59.5)" fill="#286f6c"/>
          <path id="Path_264" data-name="Path 264" d="M161.421,93.536a14.464,14.464,0,0,0-3.923-1.389,21.543,21.543,0,0,0-4.577-.531,8.229,8.229,0,0,0-2.452.286,2.1,2.1,0,0,0-1.267.817,2.166,2.166,0,0,0-.327,1.1,1.818,1.818,0,0,0,.409,1.063,4.612,4.612,0,0,0,1.389,1.1c.94.49,1.921.94,2.9,1.349a29.6,29.6,0,0,1,6.293,2.983,9.509,9.509,0,0,1,3.228,3.392,8.822,8.822,0,0,1,.94,4.209,9.509,9.509,0,0,1-1.594,5.435,10.241,10.241,0,0,1-4.577,3.637,18.725,18.725,0,0,1-7.4,1.308,28.15,28.15,0,0,1-5.558-.531,16.485,16.485,0,0,1-4.168-1.308.8.8,0,0,1-.45-.776v-7.111a.444.444,0,0,1,.163-.368.311.311,0,0,1,.368.041,17.493,17.493,0,0,0,5.067,2,19.025,19.025,0,0,0,4.822.613,7.8,7.8,0,0,0,3.392-.572,1.9,1.9,0,0,0,1.1-1.716,2.165,2.165,0,0,0-.981-1.635,17.332,17.332,0,0,0-4-1.921,25,25,0,0,1-5.8-2.942,10.582,10.582,0,0,1-3.106-3.474,8.769,8.769,0,0,1-.94-4.168,9.612,9.612,0,0,1,1.389-4.945,10.074,10.074,0,0,1,4.291-3.76,15.847,15.847,0,0,1,7.233-1.43,35.232,35.232,0,0,1,5.067.368,14.38,14.38,0,0,1,3.515.94.718.718,0,0,1,.409.368,2.051,2.051,0,0,1,.082.49v6.661a.5.5,0,0,1-.2.409A1.089,1.089,0,0,1,161.421,93.536Z" transform="translate(-105.024 -74.165)" fill="#286f6c"/>
        </g>
      </g>
    </g>
  </g>
</svg>
