<svg xmlns="http://www.w3.org/2000/svg" width="130" height="130" viewBox="0 0 130 130">
  <g id="premier-pro" transform="translate(-436 -5333)">
    <circle id="Ellipse_30" data-name="Ellipse 30" cx="65" cy="65" r="65" transform="translate(436 5333)" fill="#e2e2e2"/>
    <g id="Adobe_Premiere_Pro_Logo" transform="translate(978 5255)">
      <path id="Path_217" data-name="Path 217" d="M62.246,53.89c0-.325.093-.558.465-.558,2.975-.139,7.343-.232,11.945-.232,12.874,0,18.5,7.064,18.5,16.128C93.154,81.033,84.6,86.1,74.1,86.1c-1.766,0-2.37-.093-3.625-.093v17.847c0,.372-.139.558-.558.558H62.758c-.372,0-.558-.139-.558-.558C62.2,103.853,62.2,53.89,62.246,53.89Zm8.226,24.679c1.069.093,1.906.093,3.765.093,5.438,0,10.55-1.906,10.55-9.3,0-5.9-3.625-8.877-9.853-8.877-1.859,0-3.625.093-4.462.139Zm29.745-4.229c0-.558,0-1.906-.232-4.508,0-.372.046-.465.372-.6a48.259,48.259,0,0,1,17.011-3.207c.372,0,.558.093.558.465v6.739c0,.372-.139.465-.511.465-2.928-.139-7.157.232-8.784.93V103.9c0,.372-.139.558-.558.558h-7.3c-.372,0-.558-.139-.558-.558V74.34Z" transform="translate(-564.2 63.9)" fill="#286f6c"/>
    </g>
  </g>
</svg>
