<svg xmlns="http://www.w3.org/2000/svg" width="130" height="130" viewBox="0 0 130 130">
  <g id="stationery" transform="translate(-356 -1889)">
    <circle id="Ellipse_4" data-name="Ellipse 4" cx="65" cy="65" r="65" transform="translate(356 1889)" fill="#1b7667"/>
    <g id="noun-stationery-4067327" transform="translate(282.999 1893.756)">
      <path id="Path_246" data-name="Path 246" d="M140.977,26.249H108.96A3.958,3.958,0,0,0,105,30.219V73.971a3.958,3.958,0,0,0,3.958,3.958h.74V37.266a6.32,6.32,0,0,1,6.319-6.319h28.918v-.728a3.958,3.958,0,0,0-3.958-3.97Z" transform="translate(0 -0.004)" fill="#fff"/>
      <path id="Path_247" data-name="Path 247" d="M157.5,487.123a1.174,1.174,0,0,0,1.175,1.175H208.8a3.9,3.9,0,0,0,3.9-3.9v-1.973a1.175,1.175,0,1,0-2.349,0V484.4a1.55,1.55,0,0,1-1.551,1.551h-50.13A1.175,1.175,0,0,0,157.5,487.123Z" transform="translate(-45.451 -393.929)" fill="#fff"/>
      <path id="Path_248" data-name="Path 248" d="M214.7,256.1a2.349,2.349,0,1,1-2.349-2.349A2.349,2.349,0,0,1,214.7,256.1" transform="translate(-90.904 -196.967)" fill="#fff"/>
      <path id="Path_249" data-name="Path 249" d="M214.7,142.349A2.349,2.349,0,1,1,212.349,140a2.349,2.349,0,0,1,2.349,2.349" transform="translate(-90.904 -98.486)" fill="#fff"/>
      <path id="Path_250" data-name="Path 250" d="M193.473,78.75H161.466a3.971,3.971,0,0,0-3.97,3.97v43.752a3.958,3.958,0,0,0,3.97,3.958h32.007a3.958,3.958,0,0,0,3.958-3.958V82.72a3.958,3.958,0,0,0-3.958-3.97Zm-26.58,45.807a4.7,4.7,0,1,1,3.322-1.376A4.7,4.7,0,0,1,166.893,124.557Zm0-15.269a4.7,4.7,0,1,1,3.322-1.376A4.7,4.7,0,0,1,166.893,109.288Zm0-15.269a4.7,4.7,0,1,1,3.322-1.376A4.7,4.7,0,0,1,166.893,94.019Zm24.666,27.015H175.115a1.175,1.175,0,1,1,0-2.349h16.444a1.175,1.175,0,0,1,0,2.349Zm0-15.269H175.115a1.175,1.175,0,1,1,0-2.349h16.444a1.175,1.175,0,0,1,0,2.349Zm0-15.269H175.115a1.175,1.175,0,1,1,0-2.349h16.444a1.175,1.175,0,0,1,0,2.349Z" transform="translate(-45.448 -45.458)" fill="#fff"/>
      <path id="Path_251" data-name="Path 251" d="M214.7,369.849a2.349,2.349,0,1,1-2.349-2.349,2.349,2.349,0,0,1,2.349,2.349" transform="translate(-90.904 -295.448)" fill="#fff"/>
      <path id="Path_252" data-name="Path 252" d="M537.274,410.722,540.8,402.5H533.75Z" transform="translate(-371.196 -325.749)" fill="#fff"/>
      <path id="Path_253" data-name="Path 253" d="M490,41.22V55.609a1.175,1.175,0,1,0,2.349,0V41.22a.893.893,0,0,1,.881-.881h2.643V74.4h7.047V39a1.936,1.936,0,0,0,1.174-1.785V35.241a1.936,1.936,0,0,0-1.174-1.785V30.5a.728.728,0,0,0-.728-.728h-.446V28.593a2.349,2.349,0,1,0-4.7,0v1.175H496.6a.728.728,0,0,0-.728.728v2.96a1.936,1.936,0,0,0-1.174,1.785v1.974a1.908,1.908,0,0,0,.165.775H493.23A3.23,3.23,0,0,0,490,41.22Z" transform="translate(-333.319 0)" fill="#fff"/>
    </g>
  </g>
</svg>
