<svg xmlns="http://www.w3.org/2000/svg" width="130" height="130" viewBox="0 0 130 130">
  <g id="icon-ui-ux" transform="translate(-349 -1365)">
    <circle id="Ellipse_1" data-name="Ellipse 1" cx="65" cy="65" r="65" transform="translate(349 1365)" fill="#1b7667"/>
    <g id="noun-design-4212915" transform="translate(266.156 1385.518)">
      <path id="Path_228" data-name="Path 228" d="M502.49,38.407a2.195,2.195,0,0,1,.267.178,5.168,5.168,0,0,0,.823-1.057c1.446-2.524-2-7.116.334-11.141,0,0-8.028,3.347-9.5,5.871a5.091,5.091,0,0,0-.511,1.234,2.536,2.536,0,0,1,.3.144Z" transform="translate(-326.781 -15.558)" fill="#fff"/>
      <path id="Path_229" data-name="Path 229" d="M129.56,31.48v9.6l8.306-4.8Z" transform="translate(-10.18 -19.984)" fill="#fff"/>
      <path id="Path_230" data-name="Path 230" d="M466.787,100.766l8.283,4.781a1.751,1.751,0,1,0,1.746-3.035l-8.283-4.781a1.751,1.751,0,0,0-1.746,3.035Z" transform="translate(-302.453 -77.35)" fill="#fff"/>
      <path id="Path_231" data-name="Path 231" d="M428.1,141.95l-5.638,10.7v14.377l13.076-20.759Z" transform="translate(-264.698 -115.978)" fill="#fff"/>
      <path id="Path_232" data-name="Path 232" d="M178.687,161.625a2.343,2.343,0,0,0-1.19-2.046,1.851,1.851,0,0,1-.156.334,4.459,4.459,0,0,1-3.836,2.213l-.667,1.079h1.934V194.37H121.781V163.2h.923c-.723-1.257-1.49-2.58-2.279-3.947h-.211a2.371,2.371,0,0,0-2.368,2.368v36.692h60.842Z" transform="translate(0 -131.016)" fill="#fff"/>
      <path id="Path_233" data-name="Path 233" d="M117.86,477.78v2.235a2.363,2.363,0,0,0,2.368,2.368h56.1a2.363,2.363,0,0,0,2.368-2.368V477.78Zm30.42,3.28a.978.978,0,1,1,.978-.978A.973.973,0,0,1,148.28,481.06Z" transform="translate(-0.014 -407.799)" fill="#fff"/>
      <path id="Path_234" data-name="Path 234" d="M311.618,58.973H305.47a1.012,1.012,0,0,1,0-2.024h6.149V52.668H305.47a1.012,1.012,0,0,1,0-2.024h6.149V46.364H305.47a1.012,1.012,0,0,1,0-2.024h6.149V40.048H305.47a1.012,1.012,0,0,1,0-2.024h6.149V33.744H305.47a1.012,1.012,0,0,1,0-2.024h6.149V27.44H305.47a1.012,1.012,0,0,1,0-2.024h6.149V21.124H305.47a1.012,1.012,0,0,1,0-2.024h6.149V14.876H305.47a1.012,1.012,0,0,1,0-2.024h6.149V9.683a1.2,1.2,0,0,0-1.2-1.2h-11.23a1.2,1.2,0,0,0-1.2,1.2v50.99h13.621v-1.7Z" transform="translate(-156.536)" fill="#fff"/>
      <path id="Path_235" data-name="Path 235" d="M259.38,533.44h23.75v2.368H259.38Z" transform="translate(-122.988 -456.166)" fill="#fff"/>
      <path id="Path_236" data-name="Path 236" d="M157.875,121.56V102.647l-9.74-16.867-8.306,4.792c3.558,6.138,13.276,22.893,18.046,30.988Z" transform="translate(-19.104 -67.168)" fill="#fff"/>
      <path id="Path_237" data-name="Path 237" d="M270.388,159.26H269.31l1.079,1.879Z" transform="translate(-131.617 -131.019)" fill="#fff"/>
      <path id="Path_238" data-name="Path 238" d="M422.46,159.26v2.668l1.412-2.668Z" transform="translate(-264.698 -131.019)" fill="#fff"/>
    </g>
  </g>
</svg>
