<svg xmlns="http://www.w3.org/2000/svg" width="130" height="130" viewBox="0 0 130 130">
  <g id="visual-studio" transform="translate(-1064 -5333)">
    <circle id="Ellipse_33" data-name="Ellipse 33" cx="65" cy="65" r="65" transform="translate(1064 5333)" fill="#e2e2e2"/>
    <g id="Visual_Studio_Code_1.35_icon" transform="translate(1101.061 5369.742)">
      <path id="Path_203" data-name="Path 203" d="M54.182,6.18,42.6.605a3.5,3.5,0,0,0-3.994.679L.7,35.845a2.342,2.342,0,0,0,0,3.463l3.1,2.815a2.342,2.342,0,0,0,2.99.133L52.44,7.627A2.325,2.325,0,0,1,56.171,9.48V9.345A3.512,3.512,0,0,0,54.182,6.18Z" transform="translate(0 0)" fill="#286f6c"/>
      <g id="Group_360" data-name="Group 360" transform="translate(-0.061 13.691)">
        <path id="Path_204" data-name="Path 204" d="M54.182,60.714,42.6,66.289a3.5,3.5,0,0,1-3.994-.679L.7,31.049a2.342,2.342,0,0,1,0-3.463l3.1-2.815a2.342,2.342,0,0,1,2.99-.133L52.44,59.267a2.325,2.325,0,0,0,3.731-1.853v.134A3.512,3.512,0,0,1,54.182,60.714Z" transform="translate(0.061 -24.162)" fill="#286f6c"/>
      </g>
      <g id="Group_361" data-name="Group 361" transform="translate(38.609 0.258)">
        <path id="Path_205" data-name="Path 205" d="M72.744,55.819a3.5,3.5,0,0,1-3.994-.68,2.057,2.057,0,0,0,3.512-1.455V2.739A2.057,2.057,0,0,0,68.75,1.284,3.5,3.5,0,0,1,72.744.6L84.322,6.171a3.512,3.512,0,0,1,1.99,3.165v37.75a3.512,3.512,0,0,1-1.99,3.165Z" transform="translate(-68.75 -0.258)" fill="#286f6c"/>
      </g>
      <g id="Group_362" data-name="Group 362" transform="translate(-0.061 0.258)" opacity="0.25" style="mix-blend-mode: overlay;isolation: isolate">
        <path id="Path_206" data-name="Path 206" d="M39.79,55.926a3.5,3.5,0,0,0,2.788-.107l11.57-5.567a3.513,3.513,0,0,0,1.989-3.165V9.337a3.512,3.512,0,0,0-1.989-3.165L42.577.6a3.5,3.5,0,0,0-3.992.68L16.436,21.491,6.788,14.168A2.339,2.339,0,0,0,3.8,14.3L.705,17.115a2.343,2.343,0,0,0,0,3.463L9.07,28.212.7,35.845a2.342,2.342,0,0,0,0,3.463L3.8,42.123a2.339,2.339,0,0,0,2.988.133l9.648-7.324L38.585,55.139A3.5,3.5,0,0,0,39.79,55.926ZM42.1,15.454,25.289,28.212,42.1,40.969Z" transform="translate(0.061 -0.258)" fill="#286f6c" fill-rule="evenodd"/>
      </g>
    </g>
  </g>
</svg>
