<svg xmlns="http://www.w3.org/2000/svg" width="130" height="130" viewBox="0 0 130 130">
  <g id="wordpress" transform="translate(-1378 -5333)">
    <circle id="Ellipse_35" data-name="Ellipse 35" cx="65" cy="65" r="65" transform="translate(1378 5333)" fill="#e2e2e2"/>
    <path id="Path_216" data-name="Path 216" d="M-347.576-41.45A37.356,37.356,0,0,0-384.89-4.137a37.357,37.357,0,0,0,37.314,37.315A37.358,37.358,0,0,0-310.262-4.137,37.356,37.356,0,0,0-347.576-41.45ZM-381.124-4.137a33.421,33.421,0,0,1,2.9-13.653l16,43.846A33.55,33.55,0,0,1-381.124-4.137Zm33.548,33.55a33.537,33.537,0,0,1-9.478-1.367L-346.987-1.2l10.311,28.252a3.17,3.17,0,0,0,.24.462A33.487,33.487,0,0,1-347.576,29.413Zm4.623-49.28c2.02-.106,3.84-.319,3.84-.319a1.387,1.387,0,0,0-.214-2.765s-5.434.426-8.942.426c-3.3,0-8.835-.426-8.835-.426a1.387,1.387,0,0,0-.213,2.765s1.711.213,3.519.319l5.226,14.321-7.343,22.019-12.216-36.34c2.021-.106,3.839-.319,3.839-.319a1.387,1.387,0,0,0-.214-2.765s-5.433.426-8.941.426c-.629,0-1.371-.015-2.159-.041a33.51,33.51,0,0,1,28.03-15.121,33.422,33.422,0,0,1,22.654,8.808c-.145-.009-.285-.027-.434-.027a5.809,5.809,0,0,0-5.634,5.954c0,2.765,1.6,5.1,3.3,7.869a17.671,17.671,0,0,1,2.766,9.252c0,2.871-1.1,6.2-2.553,10.845l-3.347,11.18Zm24.815-.365a33.383,33.383,0,0,1,4.109,16.094,33.531,33.531,0,0,1-16.681,29l10.247-29.627a31.676,31.676,0,0,0,2.551-12.016A25.748,25.748,0,0,0-318.138-20.231Z" transform="translate(1790.89 5402.45)" fill="#286f6c"/>
  </g>
</svg>
