<svg xmlns="http://www.w3.org/2000/svg" width="130" height="130" viewBox="0 0 130 130">
  <g id="xd" transform="translate(5.039 72.661)">
    <circle id="Ellipse_9" data-name="Ellipse 9" cx="65" cy="65" r="65" transform="translate(-5.039 -72.661)" fill="#e2e2e2"/>
    <g id="Outlined_Mnemonics_Logos" transform="translate(28.961 -28.661)">
      <g id="Xd-2" data-name="Xd" transform="translate(0 0)">
        <path id="Path_219" data-name="Path 219" d="M68.384,60.549,57.394,78.683,69.117,97.915a.63.63,0,0,1,.073.44c-.037.147-.183.037-.4.073H60.4c-.586,0-.989-.037-1.246-.4-.769-1.539-1.575-3.04-2.344-4.579-.769-1.5-1.612-3.04-2.491-4.616s-1.758-3.15-2.638-4.762h-.073c-.769,1.575-1.612,3.15-2.454,4.726s-1.685,3.15-2.491,4.689c-.843,1.539-1.685,3.114-2.528,4.616-.147.366-.44.4-.843.4H35.232c-.147,0-.256.073-.256-.11a.509.509,0,0,1,.073-.4L46.441,79.305l-11.1-18.792c-.11-.147-.147-.293-.073-.366A.425.425,0,0,1,35.635,60H43.95a2.162,2.162,0,0,1,.513.073,1.039,1.039,0,0,1,.366.33c.7,1.575,1.5,3.15,2.344,4.726.879,1.575,1.722,3.114,2.638,4.652.879,1.539,1.685,3.077,2.454,4.652h.073c.769-1.612,1.575-3.187,2.381-4.726s1.648-3.077,2.491-4.616,1.648-3.114,2.454-4.616a.623.623,0,0,1,.22-.366.7.7,0,0,1,.476-.073h7.729a.337.337,0,0,1,.4.256c.037.037-.037.183-.11.256Z" transform="translate(-34.961 -56.807)" fill="#286f6c"/>
        <path id="Path_220" data-name="Path 220" d="M145.72,93.674a18.212,18.212,0,0,1-7.876-1.648,12.771,12.771,0,0,1-5.531-4.982,15.851,15.851,0,0,1-2.015-8.352,15.045,15.045,0,0,1,2.015-7.729,15.213,15.213,0,0,1,5.825-5.678,18.738,18.738,0,0,1,9.268-2.125,6.543,6.543,0,0,1,.769.037c.33.037.7.037,1.136.073V51.693c0-.256.11-.4.366-.4h7.436a.328.328,0,0,1,.366.256V86.494c0,.659.037,1.392.073,2.2.073.769.11,1.5.147,2.125a.6.6,0,0,1-.366.586,27.976,27.976,0,0,1-5.971,1.758A32.313,32.313,0,0,1,145.72,93.674Zm3.59-7.326V70.229a9.369,9.369,0,0,0-.989-.183c-.4-.037-.806-.073-1.209-.073a9.031,9.031,0,0,0-4.139.952,8.212,8.212,0,0,0-3.114,2.711,8.12,8.12,0,0,0-1.209,4.652,10.208,10.208,0,0,0,.623,3.773,7.159,7.159,0,0,0,1.648,2.6,6.329,6.329,0,0,0,2.491,1.465,9.589,9.589,0,0,0,3.04.476c.549,0,1.062-.037,1.539-.073A3.2,3.2,0,0,0,149.31,86.347Z" transform="translate(-95.373 -51.284)" fill="#286f6c"/>
      </g>
    </g>
  </g>
</svg>
